<svg height="512pt" viewBox="0 0 512.00107 512" width="512pt" xmlns="http://www.w3.org/2000/svg"><path d="m452 392c-33.082031 0-60 26.917969-60 60 0 33.085938 26.917969 60 60 60 33.085938 0 60-26.914062 60-60 0-33.082031-26.914062-60-60-60zm0 90c-16.542969 0-30-13.457031-30-30s13.457031-30 30-30 30 13.457031 30 30-13.457031 30-30 30zm0 0"/><path d="m511.328125 186.835938c4.367187-53.875-12.652344-102.96875-47.921875-138.238282-35.273438-35.273437-84.363281-52.292968-138.242188-47.925781-52.957031 4.296875-104.3125 28.847656-144.601562 69.136719-40.289062 40.289062-64.84375 91.644531-69.136719 144.605468-2.890625 35.683594 3.605469 69.265626 18.566407 98.128907l-117.398438 97.832031c-7.539062 6.277344-12.113281 15.503906-12.5585938 25.304688-.4453122 9.796874 3.2812498 19.394531 10.2148438 26.332031l39.738281 39.738281c6.566407 6.5625 15.511719 10.25 24.761719 10.25.523438 0 1.046875-.011719 1.574219-.035156 9.800781-.445313 19.019531-5.023438 25.304687-12.558594l97.824219-117.394531c24.378906 12.640625 52.128906 19.234375 81.667969 19.234375 5.429687 0 10.929687-.222656 16.46875-.671875 52.960937-4.292969 104.3125-28.847657 144.605468-69.136719 40.289063-40.289062 64.839844-91.640625 69.132813-144.601562zm-432.746094 293.363281c-1.230469 1.476562-2.792969 1.757812-3.617187 1.796875-.828125.03125-2.40625-.105469-3.761719-1.460938l-39.738281-39.738281c-1.355469-1.355469-1.496094-2.9375-1.457032-3.761719.035157-.824218.316407-2.386718 1.792969-3.613281l114.542969-95.457031c4.015625 5.121094 8.347656 10.027344 13.007812 14.6875 4.65625 4.65625 9.5625 8.988281 14.683594 13.003906zm125.46875-130.136719c-.035156-.023438-.066406-.050781-.101562-.074219-8.480469-5.289062-16.34375-11.535156-23.375-18.5625-7.027344-7.027343-13.273438-14.890625-18.5625-23.371093-.023438-.039063-.050781-.074219-.074219-.109376-19.96875-32.113281-25.625-71.996093-17.660156-111.8125l171.59375 171.59375c-39.820313 7.964844-79.703125 2.304688-111.820313-17.664062zm144.566407 7.984375-194.664063-194.664063c10.171875-25.839843 26.171875-50.710937 47.824219-72.363281 40.234375-40.230469 91.574218-60.980469 139.605468-60.980469 38.082032 0 74.085938 13.046876 100.808594 39.769532 60.433594 60.433594 50.917969 168.285156-21.210937 240.417968-21.652344 21.648438-46.523438 37.652344-72.363281 47.820313zm0 0"/></svg>